<svg xmlns="http://www.w3.org/2000/svg"  viewBox="0 0 64 64" width="512px" height="512px"><radialGradient id="HQzhsS_xqgHa1AzKwIfMea" cx="32" cy="77.61" r="31.259" gradientTransform="matrix(1 0 0 -1 0 110.11)" gradientUnits="userSpaceOnUse"><stop offset="0" stop-color="#f4e9c3"/><stop offset=".219" stop-color="#f8eecd"/><stop offset=".644" stop-color="#fdf4dc"/><stop offset="1" stop-color="#fff6e1"/></radialGradient><path fill="url(#HQzhsS_xqgHa1AzKwIfMea)" d="M61,47.5L61,47.5c0-1.933-1.567-3.5-3.5-3.5h-10c-1.381,0-2.5-1.119-2.5-2.5v0	c0-1.381,1.119-2.5,2.5-2.5l10.368,0c1.451,0,2.789-0.972,3.071-2.395C61.32,34.694,59.848,33,58,33h-4c-1.657,0-3-1.343-3-3v0	c0-1.657,1.343-3,3-3h6c2.335,0,4.22-2.028,3.979-4.41C63.77,20.514,61.897,19,59.811,19H60c-1.214,0-2.175-1.082-1.973-2.334	C58.185,15.682,59.11,15,60.107,15l1.25,0c1.308,0,2.5-0.941,2.63-2.243C64.136,11.26,62.966,10,61.5,10h-13	C47.672,10,47,9.328,47,8.5S47.672,7,48.5,7h-0.143c1.308,0,2.499-0.941,2.63-2.242C51.137,3.261,49.966,2,48.5,2L7.643,2	c-1.308,0-2.5,0.942-2.63,2.243C4.864,5.74,6.034,7,7.5,7l4.393,0c0.997,0,1.922,0.682,2.08,1.666C14.175,9.918,13.214,11,12,11	l-5.809,0c-2.086,0-3.958,1.513-4.169,3.588C1.779,16.97,3.664,19,6,19h5c1.105,0,2,0.895,2,2v0c0,1.105-0.895,2-2,2h-0.5v5h5	c0.828,0,1.5,0.672,1.5,1.5v0c0,0.828-0.672,1.5-1.5,1.5L5.19,31c-2.086,0-3.959,1.514-4.169,3.59C0.78,36.972,2.665,39,5,39h12	c1.657,0,3,1.343,3,3v0c0,1.657-1.343,3-3,3l-2.868,0c-1.451,0-2.789,0.972-3.072,2.396C10.681,49.307,12.152,51,14,51h2	c1.105,0,2,0.895,2,2v0c0,1.105-0.895,2-2,2L4.19,55c-2.086,0-3.959,1.514-4.169,3.59C-0.22,60.972,1.665,63,4,63l53.81,0	c2.086,0,3.959-1.514,4.169-3.59C62.22,57.028,60.335,55,58,55h-8c-1.105,0-2-0.895-2-2v0c0-1.105,0.895-2,2-2h7.5	C59.433,51,61,49.433,61,47.5z"/><linearGradient id="HQzhsS_xqgHa1AzKwIfMeb" x1="24.981" x2="24.981" y1="55" y2="25.588" gradientUnits="userSpaceOnUse"><stop offset="0" stop-color="#feaa53"/><stop offset=".612" stop-color="#ffcd49"/><stop offset="1" stop-color="#ffde44"/></linearGradient><path fill="url(#HQzhsS_xqgHa1AzKwIfMeb)" d="M24.559,52.934c-0.201,0.1-0.441,0.201-0.642,0.301c-0.201,0.401-0.261,0.802-0.401,1.203	c-0.201-0.261-0.441-0.521-0.441-0.862c-0.06-1.464,0.12-2.948,0-4.413c-0.04-0.521-0.521-0.802-0.802-1.203	c-0.341-0.321-0.341-0.802-0.401-1.264c0.602-0.08,1.404,0.02,1.865-0.501c0.281-0.241,0.241-0.662,0.301-1.003l-1.003,0.321	c0.521-0.542,1.003-1.123,1.143-1.905l-1.143,0.521c0.501-0.562,1.003-1.163,1.123-1.926l-1.123,0.521	c0.481-0.562,1.003-1.143,1.143-1.925l-1.143,0.501c0.321-0.361,0.642-0.722,1.003-1.063l0.06-0.702l-0.963,0.401	c0.04-1.324-0.16-2.688,0.201-4.011l-0.1,0c0.386-1.127,0.954-2.28,1.899-3.023c0.343-0.269,0.849-0.085,0.952,0.338	c0.359,1.473,0.81,2.942,0.759,4.469v8.865l1.244,0.08c0.04,0.923-0.702,1.484-1.163,2.166c-0.321,1.605,0.1,3.269-0.201,4.874	c-0.201,0.501-0.662,0.883-1.003,1.304l-0.12-3.51c-0.261,0.401-0.562,0.802-0.562,1.264"/><linearGradient id="HQzhsS_xqgHa1AzKwIfMec" x1="32.005" x2="32.005" y1="13" y2="54.117" gradientUnits="userSpaceOnUse"><stop offset=".053" stop-color="#5d6b79"/><stop offset="1" stop-color="#515c69"/></linearGradient><path fill="url(#HQzhsS_xqgHa1AzKwIfMec)" d="M36.284,13h5.654c1.104,0,2,0.892,2.006,1.996v0c0.006,1.112-0.894,2.016-2.006,2.016H39.08	l-0.02,3.33h2.688c1.108,0,2.006,0.898,2.006,2.006v0c0,1.108-0.898,2.006-2.006,2.006H39.08v3.169l5.014,0.02l0.04,1.905	c-0.201-0.241-0.401-0.521-0.642-0.722c-0.361-0.04-0.722,0-1.063,0.02l-0.201,1.284l-0.802-0.642l-0.301,1.264	c-0.883-0.281-1.605,0.321-2.407,0.501l-0.08-1.404c-0.662,0.1-1.284,0.361-1.865,0.702c-0.341-0.401-0.842-0.441-1.324-0.481	l-0.1,1.083l-0.923-0.02l-0.142-16.014C34.275,13.906,35.173,13,36.284,13z M42.851,45.112c2.146-2.364,1.985-6.017-0.361-8.183	c-1.143-0.862-2.607-1.304-4.011-1.324l-5.614-0.015c-1.108-0.003-2.007,0.895-2.005,2.003l0.017,11.691	c0.02,1.244-0.04,2.487,0.08,3.691c0.226-0.299,0.44-0.607,0.642-0.923l1.765,0.16l0.321,0.602l0.562-0.1	c0.261,0.562,0.782,0.822,1.304,1.083l0.06-6.94c1.324,1.605,2.166,3.65,3.57,5.215c0.06-0.602,0.12-1.223,0.461-1.745	c0.101,0.597,0.161,1.2,0.181,1.805l0.461-0.662l0.04,1.063l0.602,0.1c0.181-0.602,0.642-1.043,1.143-1.404	c0.129,0.577,0.236,1.159,0.321,1.745l0.16-0.802l0.802,0.602l0.08-0.521l0.481,0.301c0.123-0.329,0.25-0.657,0.381-0.983	l-3.891-5.054C41.246,46.115,42.169,45.794,42.851,45.112z M38.418,43.347c-0.802,0.501-1.865,0.341-2.808,0.401v-4.492	c1.159,0.039,2.552,0.005,3.35,1.002C39.542,41.221,39.421,42.705,38.418,43.347z M10.845,35.645h6.253	c1.196,0,2.166,0.97,2.166,2.166v0c0,1.196-0.97,2.166-2.166,2.166h-3.49l-0.02,3.009l3.237,0.013	c1.071,0.004,1.937,0.874,1.937,1.945v0c0,1.076-0.873,1.95-1.949,1.944c-1.075-0.006-2.15-0.008-3.226,0.03v4.854	c0,0.642-0.321,1.203-0.521,1.805c-0.441,0.147-0.87,0.328-1.284,0.542l-0.04-2.006l-1.143-0.08l-0.06-1.304	c-0.498-0.216-0.923-0.571-1.223-1.023l-0.401,0.542L8.845,37.656C8.839,36.547,9.736,35.645,10.845,35.645z M47.356,13h5.654	c1.104,0,2,0.892,2.006,1.996v0c0.006,1.112-0.894,2.016-2.006,2.016h-2.858l-0.02,3.33h2.688c1.108,0,2.006,0.898,2.006,2.006v0	c0,1.108-0.898,2.006-2.006,2.006h-2.668v3.169l5.014,0.02l0.04,1.905c-0.201-0.241-0.401-0.521-0.642-0.722	c-0.361-0.04-0.722,0-1.063,0.02l-0.201,1.284l-0.802-0.642l-0.301,1.264c-0.883-0.281-1.605,0.321-2.407,0.501l-0.08-1.404	c-0.662,0.1-1.284,0.361-1.865,0.702c-0.341-0.401-0.842-0.441-1.324-0.481l-0.1,1.083l-0.923-0.02l-0.142-16.014	C45.346,13.906,46.244,13,47.356,13z M47.055,35.585h5.654c1.104,0,2,0.892,2.006,1.996v0c0.006,1.112-0.894,2.016-2.006,2.016	h-2.858l-0.02,3.33h2.688c1.108,0,2.006,0.898,2.006,2.006v0c0,1.108-0.898,2.006-2.006,2.006h-2.668v3.169l5.014,0.02l0.04,1.905	c-0.201-0.241-0.401-0.521-0.642-0.722c-0.361-0.04-0.722,0-1.063,0.02L53,52.613l-0.802-0.642l-0.301,1.264	c-0.883-0.281-1.605,0.321-2.407,0.501l-0.08-1.404c-0.662,0.1-1.284,0.361-1.865,0.702c-0.341-0.401-0.842-0.441-1.324-0.481	l-0.1,1.083l-0.923-0.02l-0.143-16.014C45.045,36.491,45.944,35.585,47.055,35.585z M10.805,13.06h6.419c1.105,0,2,0.895,2,2v0.332	c0,1.105-0.895,2-2,2h-3.656l-0.02,3.009l3.237,0.013c1.071,0.004,1.937,0.874,1.937,1.945v0c0,1.076-0.873,1.95-1.949,1.944	c-1.075-0.006-2.15-0.008-3.226,0.03v4.854c0,0.642-0.321,1.203-0.521,1.805c-0.441,0.147-0.87,0.328-1.284,0.542l-0.04-2.006	l-1.143-0.08l-0.06-1.304C10,27.928,9.575,27.572,9.275,27.12l-0.401,0.542L8.805,15.071C8.799,13.962,9.696,13.06,10.805,13.06z M32.04,22.527c2.146-2.364,1.985-6.017-0.361-8.183c-1.143-0.862-2.607-1.304-4.011-1.324l-5.596-0.015	c-1.107-0.003-2.005,0.893-2.005,2v11.694c0.02,1.244-0.04,2.487,0.08,3.691c0.226-0.299,0.44-0.607,0.642-0.923l1.765,0.16	l0.321,0.602l0.562-0.1c0.261,0.562,0.782,0.822,1.304,1.083l0.06-6.94c1.324,1.605,2.166,3.65,3.57,5.215	c0.06-0.602,0.12-1.223,0.461-1.745c0.101,0.597,0.161,1.2,0.181,1.805l0.461-0.662l0.04,1.063l0.602,0.1	c0.181-0.602,0.642-1.043,1.143-1.404c0.129,0.577,0.236,1.159,0.321,1.745l0.16-0.802l0.802,0.602l0.08-0.521l0.481,0.301	c0.123-0.329,0.25-0.657,0.381-0.983l-3.891-5.054C30.436,23.53,31.358,23.209,32.04,22.527z M27.607,20.762	c-0.802,0.501-1.865,0.341-2.808,0.401v-4.492c1.159,0.039,2.552,0.005,3.35,1.002C28.731,18.636,28.61,20.12,27.607,20.762z"/></svg>