<?xml version="1.0" encoding="UTF-8"?>
<svg xmlns="http://www.w3.org/2000/svg" xmlns:xlink="http://www.w3.org/1999/xlink" viewBox="0 0 500 500" width="500px" height="500px">
<g id="surface43944533">
<path style=" stroke:none;fill-rule:nonzero;fill:rgb(98.039216%,92.941177%,47.058824%);fill-opacity:1;" d="M 245.234375 6.855469 C 243.402344 6.808594 241.589844 7.269531 240 8.183594 L 35 126.542969 C 31.902344 128.332031 29.996094 131.636719 30 135.214844 L 30 371.914062 C 29.996094 375.492188 31.902344 378.796875 35 380.585938 L 240 498.945312 C 243.09375 500.730469 246.90625 500.730469 250 498.945312 L 455 380.585938 C 458.097656 378.796875 460.003906 375.492188 460 371.914062 L 460 135.214844 C 460.003906 131.636719 458.097656 128.332031 455 126.542969 L 250 8.183594 C 248.546875 7.347656 246.910156 6.890625 245.234375 6.855469 Z M 245 28.398438 L 440 140.976562 L 440 366.152344 L 245 478.730469 L 50 366.152344 L 50 140.976562 Z M 140.410156 130 C 138.460938 129.925781 136.535156 130.421875 134.863281 131.425781 L 104.863281 149.394531 C 101.84375 151.203125 99.996094 154.46875 100 157.988281 L 100 358.085938 C 100 361.738281 101.992188 365.101562 105.195312 366.855469 L 145.195312 388.769531 C 148.632812 390.65625 152.855469 390.355469 155.996094 388.007812 L 195.996094 358.007812 C 198.519531 356.117188 200 353.152344 200 350 L 200 298.320312 L 239.453125 323.691406 C 239.535156 323.746094 239.621094 323.796875 239.707031 323.847656 L 239.863281 323.945312 C 242.949219 325.796875 246.789062 325.847656 249.921875 324.082031 L 250.078125 324.003906 C 250.25 323.90625 250.417969 323.800781 250.585938 323.691406 L 290 298.339844 L 290 350 C 290 353.152344 291.480469 356.117188 294.003906 358.007812 L 334.003906 388.007812 C 337.144531 390.355469 341.367188 390.65625 344.804688 388.769531 L 384.804688 366.855469 C 388.007812 365.101562 390 361.738281 390 358.085938 L 390 157.988281 C 390.003906 154.46875 388.15625 151.203125 385.136719 149.394531 L 355.136719 131.425781 C 351.972656 129.53125 348.027344 129.53125 344.863281 131.425781 L 295.058594 161.308594 C 294.992188 161.347656 294.929688 161.386719 294.863281 161.425781 C 294.851562 161.433594 294.835938 161.4375 294.824219 161.445312 L 245 191.503906 L 195.546875 161.679688 C 195.417969 161.597656 195.289062 161.519531 195.15625 161.445312 C 195.148438 161.4375 195.144531 161.433594 195.136719 161.425781 L 145.136719 131.425781 C 143.707031 130.5625 142.082031 130.074219 140.410156 130 Z M 140 151.660156 L 180 175.664062 L 180 345 L 149.160156 368.125 L 120 352.167969 L 120 163.652344 Z M 350 151.660156 L 370 163.652344 L 370 352.167969 L 340.839844 368.125 L 310 345 L 310 175.664062 Z M 200 187.695312 L 239.84375 211.757812 C 243.019531 213.675781 247 213.675781 250.175781 211.757812 L 290 187.714844 L 290 274.550781 L 245.019531 303.496094 L 200 274.550781 Z M 200 187.695312 "/>
</g>
</svg>
